<svg width="1024" height="1024" viewBox="0 0 1024 1024" fill="none" xmlns="http://www.w3.org/2000/svg">
<rect width="1024" height="1024" fill="white"/>
<path d="M430.86 131.611C135.699 131.611 112.57 363.601 142.617 477.003C203.829 394.856 308.811 372.245 352.248 372.245C483.643 370.624 528.802 370.17 688.706 368.096C848.611 366.022 890.301 192.116 891 128.5C858.857 128.5 726.02 131.611 430.86 131.611Z" fill="#061C58"/>
<path d="M388.471 895V416.967C337.111 413.855 147.395 469.865 147.395 644.116C147.395 850.102 308.112 889.814 388.471 895Z" fill="#41A6FF"/>
<path d="M660.991 416.845H434.59V650.096C640.028 650.096 660.991 495.551 660.991 416.845Z" fill="#1B60C8"/>
</svg>
