<?xml version="1.0" encoding="UTF-8"?>
<svg width="291px" height="75px" viewBox="0 0 291 75" version="1.1" xmlns="http://www.w3.org/2000/svg" xmlns:xlink="http://www.w3.org/1999/xlink">
    <title>Artboard</title>
    <defs>
        <path d="M1.79359587,0.0280593052 C0.738828488,-0.173227624 -0.173104143,0.73872867 0.0280174349,1.79352342 C0.142989802,2.39674368 0.603199526,2.85696534 1.20640413,2.97194069 C2.26117151,3.17322762 3.17310414,2.26127133 2.97198257,1.20647658 C2.8570102,0.603256322 2.39680047,0.143034655 1.79359587,0.0280593052" id="path-1"></path>
        <path d="M1.79373947,0.0280594382 C0.738957628,-0.173227482 -0.172987502,0.738728771 0.0279767015,1.79336334 C0.142950644,2.39674371 0.603166676,2.85696535 1.20637955,2.9719407 C2.26116139,3.17322762 3.17310652,2.26127136 2.97198218,1.20647666 C2.85700824,0.603416562 2.39695234,0.143194916 1.79373947,0.0280594382" id="path-3"></path>
        <path d="M1.79359587,0.0280583253 C0.738828488,-0.173220612 -0.173104143,0.738699472 0.0280174349,1.79329222 C0.142989802,2.39648852 0.603199526,2.85685204 1.20640413,2.97198295 C2.26117151,3.17310176 3.17310414,2.26118168 2.97198257,1.20642881 C2.8570102,0.603232503 2.39680047,0.14302911 1.79359587,0.0280583253" id="path-5"></path>
        <path d="M47.0003234,0 C58.0458416,0 67.9596662,6.53504328 72.2955685,16.4635629 C72.5168985,16.9704026 73.0094762,17.3074006 73.5661855,17.3261973 C74.131863,17.3451619 74.8207273,17.3758743 75.2197305,17.4179991 C85.7716556,18.5323751 94.0158601,27.4217055 93.9999771,38.1814758 C93.9826944,49.7172814 84.4052643,59 72.77444,59 L72.77444,59 L21.2262068,59 C9.64969972,59 0.0944364614,49.8022022 0.000679328697,38.3207728 C-0.0852672624,27.6230988 7.99429338,18.743838 18.4157557,17.4597882 C18.4242163,17.4586134 18.4330153,17.4576064 18.4416452,17.4565995 C20.214485,17.2458079 21.765318,16.1844654 22.5959824,14.6167868 C27.3026294,5.73265899 36.655176,0 47.0003234,0 Z M52.848309,3.84912858 C49.8718603,3.12008499 47.0003234,5.37871034 47.0003234,8.41958066 L47.0003234,8.41958066 L47.0003234,12.235815 C47.0003234,13.9496716 48.4010649,15.3391172 50.1290634,15.3391172 L50.1290634,15.3391172 L51.8247423,15.3391172 C53.6752507,15.3391172 55.4450447,14.63508 56.8198967,13.4065811 C57.7901614,12.5395832 59.1213565,12.062449 60.5601708,12.227088 C62.6942794,12.4711095 64.3759137,14.0721858 64.6974175,16.1789271 C65.1434618,19.1024858 62.8626459,21.6276216 59.9980467,21.6276216 C58.745197,21.6276216 57.6041968,21.1442778 56.754073,20.355991 C55.4249084,19.1229608 53.6437772,18.4833694 51.8238962,18.4833694 L51.8238962,18.4833694 L42.1769198,18.4833694 C40.3568696,18.4833694 38.5757384,17.8436102 37.2464046,16.61058 C36.3962808,15.8222932 35.2554498,15.3391172 34.0026001,15.3391172 C31.2011172,15.3391172 28.9576973,17.754158 29.2776782,20.5953133 C29.5287896,22.8255758 31.3786212,24.5887737 33.6349013,24.7579441 C34.9831868,24.8591442 36.2253761,24.398625 37.148769,23.5883528 C38.5554329,22.3539799 40.3407945,21.6276216 42.2188845,21.6276216 L42.2188845,21.6276216 L43.8715834,21.6276216 C45.5994127,21.6276216 47.0003234,23.0168994 47.0003234,24.730756 L47.0003234,24.730756 L47.0003234,24.8128237 C47.0003234,26.5266803 48.4012341,27.9159581 50.1292326,27.9159581 L50.1292326,27.9159581 L64.8715372,27.9159581 C66.7220456,27.9159581 68.4918397,27.2120887 69.8668608,25.9835899 C70.7931303,25.1558636 72.0481797,24.6834286 73.4120329,24.7856357 C75.6684822,24.9544703 77.5183137,26.7176683 77.7697636,28.9480986 C78.0897445,31.7894217 75.8463245,34.2046303 73.0448416,34.2046303 C71.7918227,34.2046303 70.6509917,33.7212865 69.8010371,32.9329998 C68.4715342,31.6999696 66.6907413,31.0603782 64.8706912,31.0603782 L64.8706912,31.0603782 L29.1494151,31.0603782 C27.2711558,31.0602103 25.4859635,30.333852 24.0792996,29.099647 C23.1560759,28.2893748 21.9138866,27.8288556 20.5656011,27.9298878 C18.309321,28.0990582 16.4594894,29.8620883 16.2082088,32.0925186 C15.8882279,34.9336739 18.1316478,37.3488825 20.9331307,37.3488825 C22.1859804,37.3488825 23.3269806,36.8655387 24.1769352,36.0772519 C25.5064382,34.8443896 27.2874002,34.2046303 29.1074504,34.2046303 L29.1074504,34.2046303 L43.8715834,34.2046303 C45.5994127,34.2046303 47.0003234,35.5939081 47.0003234,37.3077647 L47.0003234,37.3077647 L47.0003234,37.3898325 C47.0003234,39.1036891 48.4012341,40.4929669 50.1292326,40.4929669 L50.1292326,40.4929669 L57.6201028,40.4929669 C59.4706112,40.4929669 61.2404052,39.7890975 62.6152572,38.5605986 C63.5418651,37.7328723 64.7970837,37.2604373 66.1607676,37.3626444 C68.4172169,37.5316469 70.2670485,39.2948448 70.5183291,41.5251073 C70.83831,44.3662626 68.5948901,46.7816391 65.7934072,46.7816391 C64.5405575,46.7816391 63.3995573,46.2982953 62.5494335,45.5098407 C61.2202689,44.2769783 59.4393069,43.6373869 57.6192567,43.6373869 L57.6192567,43.6373869 L36.4461985,43.6373869 C34.5681084,43.6372191 32.7825777,42.9108607 31.3759138,41.6764879 C30.4526901,40.8662157 29.2105008,40.4058643 27.8622153,40.5068966 C25.6059352,40.6760669 23.7561036,42.4392649 23.5049922,44.6695273 C23.1851805,47.5106827 25.4284312,49.9258913 28.2299141,49.9258913 C29.4827638,49.9258913 30.623764,49.4425475 31.4737186,48.6542607 C32.8030524,47.4212305 34.5840144,46.7816391 36.4042338,46.7816391 L36.4042338,46.7816391 L43.8715834,46.7816391 C45.5994127,46.7816391 47.0003234,48.1709169 47.0003234,49.8847735 L47.0003234,49.8847735 L47.0003234,51.1550614 C47.0003234,53.7510205 49.1220795,55.8552443 51.7394592,55.8552443 L51.7394592,55.8552443 L72.7815469,55.8552443 C82.6320861,55.8552443 90.7722248,48.0233963 90.8290419,38.2536417 C90.8855972,28.4437763 82.8559543,20.4451075 72.9780027,20.4451075 C72.906595,20.4451075 72.7766397,20.4498067 72.6114883,20.4575268 C71.3327491,20.5171056 70.1602754,19.7538252 69.7025554,18.5679546 C69.4580433,17.9340693 69.2123467,17.3194842 69.066147,17.011856 C65.9165939,10.3876962 59.9159786,5.57993577 52.848309,3.84912858 Z M66.1880108,40.5438187 C65.0246746,40.2501202 63.9632043,41.3032391 64.2596647,42.4570546 C64.4009571,43.0063547 64.8449709,43.4467346 65.3989727,43.5865351 C66.5621398,43.8800658 67.6236101,42.8272825 67.3273189,41.6736348 C67.1861957,41.1241669 66.7421819,40.683787 66.1880108,40.5438187 Z M73.4397837,27.9669778 C72.2762783,27.6729436 71.2144695,28.7262303 71.5110991,29.8800459 C71.6522224,30.4295138 72.0964053,30.8698937 72.6504072,31.0096942 C73.8135742,31.303057 74.8748753,30.2504416 74.5787534,29.0967939 C74.4377993,28.547326 73.9936164,28.1067782 73.4397837,27.9669778 Z M60.3928196,15.389969 C59.2293141,15.0959349 58.1676746,16.1493894 58.4644734,17.3033728 C58.6057659,17.8526729 59.0499488,18.2930528 59.6039507,18.4326854 C60.7669485,18.7258805 61.8280804,17.673265 61.5321276,16.5197852 C61.3910044,15.9703173 60.9469907,15.5297695 60.3928196,15.389969 Z" id="path-7"></path>
        <linearGradient x1="92.0143509%" y1="19.5026248%" x2="-24.86223%" y2="78.3734281%" id="linearGradient-9">
            <stop stop-color="#E74C3C" offset="0%"></stop>
            <stop stop-color="#A93226" offset="100%"></stop>
        </linearGradient>
    </defs>
    <g id="Artboard" stroke="none" stroke-width="1" fill="none" fill-rule="evenodd">
        <g id="Group-2" transform="translate(0.000000, 6.000000)">
            <g id="TEKCLOUD-EPS-10" transform="translate(0.000000, 2.000000)">
                <g id="Group-3" transform="translate(33.000000, 19.000000)">
                    <mask id="mask-2" fill="white">
                        <use xlink:href="#path-1"></use>
                    </mask>
                    <g id="Clip-2"></g>
                    <path d="M1.79359587,0.0280593052 C0.738828488,-0.173227624 -0.173104143,0.73872867 0.0280174349,1.79352342 C0.142989802,2.39674368 0.603199526,2.85696534 1.20640413,2.97194069 C2.26117151,3.17322762 3.17310414,2.26127133 2.97198257,1.20647658 C2.8570102,0.603256322 2.39680047,0.143034655 1.79359587,0.0280593052" id="Fill-1" fill="#CC4133" mask="url(#mask-2)"></path>
                </g>
                <g id="Group-6" transform="translate(20.000000, 31.000000)">
                    <mask id="mask-4" fill="white">
                        <use xlink:href="#path-3"></use>
                    </mask>
                    <g id="Clip-5"></g>
                    <path d="M1.79373947,0.0280594382 C0.738957628,-0.173227482 -0.172987502,0.738728771 0.0279767015,1.79336334 C0.142950644,2.39674371 0.603166676,2.85696535 1.20637955,2.9719407 C2.26116139,3.17322762 3.17310652,2.26127136 2.97198218,1.20647666 C2.85700824,0.603416562 2.39695234,0.143194916 1.79373947,0.0280594382" id="Fill-4" fill="#CC4133" mask="url(#mask-4)"></path>
                </g>
                <g id="Group-9" transform="translate(26.000000, 44.000000)">
                    <mask id="mask-6" fill="white">
                        <use xlink:href="#path-5"></use>
                    </mask>
                    <g id="Clip-8"></g>
                    <path d="M1.79359587,0.0280583253 C0.738828488,-0.173220612 -0.173104143,0.738699472 0.0280174349,1.79329222 C0.142989802,2.39648852 0.603199526,2.85685204 1.20640413,2.97198295 C2.26117151,3.17310176 3.17310414,2.26118168 2.97198257,1.20642881 C2.8570102,0.603232503 2.39680047,0.14302911 1.79359587,0.0280583253" id="Fill-7" fill="#CC4133" mask="url(#mask-6)"></path>
                </g>
                <g id="Group-12" transform="translate(-0.000000, 0.000000)">
                    <mask id="mask-8" fill="white">
                        <use xlink:href="#path-7"></use>
                    </mask>
                    <g id="Clip-11"></g>
                    <polygon id="Fill-10" fill="url(#linearGradient-9)" mask="url(#mask-8)" points="0.000692710905 90.0284909 96.2628335 90.0284909 96.2628335 0 0.000692710905 0"></polygon>
                </g>
            </g>
            <g id="Group" transform="translate(110.000000, 0.000000)" fill="#FFFFFF" fill-rule="nonzero">
                <g id="BulutKOBİ">
                    <path d="M9.60671109,39.2154839 C10.6423282,39.2154839 11.671132,39.0709677 12.6931225,38.7819355 C13.7151131,38.4929032 14.6349045,38.0249462 15.452497,37.3780645 C16.2700894,36.7311828 16.9309766,35.8778495 17.4351586,34.8180645 C17.9393406,33.7582796 18.1914316,32.443871 18.1914316,30.8748387 C18.1914316,29.8563441 18.0551662,28.947957 17.7826354,28.1496774 C17.5101046,27.3513978 17.1558145,26.6701075 16.7197653,26.1058065 C16.283716,25.5415054 15.7931605,25.0804301 15.2480989,24.7225806 C14.7030373,24.3647312 14.1579756,24.1169892 13.612914,23.9793548 L13.612914,23.9793548 L13.612914,23.8967742 C14.621278,23.4288172 15.4729368,22.6787097 16.1678904,21.6464516 C16.8628439,20.6141935 17.2103207,19.2309677 17.2103207,17.4967742 C17.2103207,15.9277419 16.9309766,14.6477419 16.3722885,13.6567742 C15.8136003,12.6658065 15.1186467,11.9019355 14.2874278,11.3651613 C13.4562088,10.8283871 12.5364173,10.4636559 11.5280533,10.2709677 C10.5196893,10.0782796 9.56583146,9.98193548 8.66647979,9.98193548 L8.66647979,9.98193548 L0,9.98193548 L0,39.2154839 L9.60671109,39.2154839 Z M8.33944282,21.7909677 L6.09106362,21.7909677 L6.09106362,15.4735484 L8.29856319,15.4735484 C9.14340871,15.4735484 9.8792419,15.7075269 10.5060628,16.1754839 C11.1328836,16.6434409 11.4462941,17.4417204 11.4462941,18.5703226 C11.4462941,19.7264516 11.1260704,20.5522581 10.485623,21.0477419 C9.84517555,21.5432258 9.12978217,21.7909677 8.33944282,21.7909677 L8.33944282,21.7909677 Z M8.54384092,33.723871 L6.09106362,33.723871 L6.09106362,26.6219355 L8.46208168,26.6219355 C8.8708779,26.6219355 9.28648738,26.6907527 9.70891014,26.8283871 C10.1313329,26.9660215 10.512876,27.1793548 10.8535395,27.4683871 C11.1942031,27.7574194 11.4667339,28.1290323 11.671132,28.5832258 C11.8755301,29.0374194 11.9777291,29.5948387 11.9777291,30.2554839 C11.9777291,31.4116129 11.6438789,32.2787097 10.9761784,32.8567742 C10.3084779,33.4348387 9.49769876,33.723871 8.54384092,33.723871 L8.54384092,33.723871 Z M28.3607281,40 C29.696129,40 30.8135054,39.6215054 31.712857,38.8645161 C32.6122087,38.1075269 33.2390296,37.2060215 33.5933196,36.16 L33.5933196,36.16 L33.6750789,36.16 L33.6750789,39.2154839 L39.929661,39.2154839 L39.929661,17.6206452 L33.5115604,17.6206452 L33.5115604,30.2967742 C33.5115604,31.4804301 33.2935357,32.4369892 32.8574865,33.1664516 C32.4214372,33.895914 31.8082428,34.2606452 31.0179035,34.2606452 C30.6363603,34.2606452 30.3161366,34.1643011 30.0572324,33.9716129 C29.7983281,33.7789247 29.6007433,33.5311828 29.4644779,33.2283871 C29.3282124,32.9255914 29.2328267,32.5677419 29.1783205,32.1548387 C29.1238143,31.7419355 29.0965613,31.3015054 29.0965613,30.8335484 L29.0965613,30.8335484 L29.0965613,17.6206452 L22.6784607,17.6206452 L22.6784607,30.8335484 C22.6784607,32.0172043 22.7465934,33.1595699 22.8828588,34.2606452 C23.0191242,35.3617204 23.291655,36.3389247 23.7004512,37.1922581 C24.1092474,38.0455914 24.6815621,38.7268817 25.4173953,39.236129 C26.1532285,39.7453763 27.1343394,40 28.3607281,40 Z M52.2655774,39.2154839 L52.2655774,8 L45.7248379,8 L45.7248379,39.2154839 L52.2655774,39.2154839 Z M63.497744,40 C64.833145,40 65.9505213,39.6215054 66.849873,38.8645161 C67.7492246,38.1075269 68.3760455,37.2060215 68.7303356,36.16 L68.7303356,36.16 L68.8120948,36.16 L68.8120948,39.2154839 L75.0666769,39.2154839 L75.0666769,17.6206452 L68.6485763,17.6206452 L68.6485763,30.2967742 C68.6485763,31.4804301 68.4305517,32.4369892 67.9945024,33.1664516 C67.5584531,33.895914 66.9452587,34.2606452 66.1549194,34.2606452 C65.7733763,34.2606452 65.4531526,34.1643011 65.1942483,33.9716129 C64.935344,33.7789247 64.7377592,33.5311828 64.6014938,33.2283871 C64.4652284,32.9255914 64.3698426,32.5677419 64.3153364,32.1548387 C64.2608303,31.7419355 64.2335772,31.3015054 64.2335772,30.8335484 L64.2335772,30.8335484 L64.2335772,17.6206452 L57.8154766,17.6206452 L57.8154766,30.8335484 C57.8154766,32.0172043 57.8836093,33.1595699 58.0198747,34.2606452 C58.1561401,35.3617204 58.4286709,36.3389247 58.8374671,37.1922581 C59.2462633,38.0455914 59.818578,38.7268817 60.5544112,39.236129 C61.2902444,39.7453763 62.2713553,40 63.497744,40 Z M87.3208341,39.7522581 C87.974908,39.7522581 88.6289819,39.6834409 89.2830559,39.5458065 C89.9371298,39.408172 90.4413118,39.2430108 90.7956019,39.0503226 L90.7956019,39.0503226 L90.7956019,33.9716129 C90.4140588,34.1643011 89.9371298,34.2606452 89.3648151,34.2606452 C88.656235,34.2606452 88.1384265,34.0197849 87.8113895,33.5380645 C87.4843525,33.0563441 87.3208341,32.2924731 87.3208341,31.2464516 L87.3208341,31.2464516 L87.3208341,22.6580645 L91,22.6580645 L91,17.6206452 L87.3208341,17.6206452 L87.3208341,12.4180645 L81.1071316,12.4180645 L81.1071316,17.6206452 L78.572595,17.6206452 L78.572595,22.6580645 L81.1480112,22.6580645 L81.1480112,32.7329032 C81.1480112,35.0726882 81.6385666,36.8275269 82.6196776,37.9974194 C83.6007885,39.1673118 85.1678406,39.7522581 87.3208341,39.7522581 Z" id="Bulut"></path>
                    <path d="M100.556723,39.2091571 L100.556723,25.5150884 L100.678898,25.5150884 L106.828371,39.2091571 L114.362494,39.2091571 L106.502571,23.2258065 L113.914519,9.73985432 L106.624746,9.73985432 L100.678898,22.0187305 L100.556723,22.0187305 L100.556723,9.73985432 L94,9.73985432 L94,39.2091571 L100.556723,39.2091571 Z M126.529573,40 C128.240023,40 129.780785,39.6253902 131.151859,38.8761707 C132.522934,38.1269511 133.683596,37.0724939 134.633846,35.7127992 C135.584096,34.3531044 136.317145,32.7089837 136.832995,30.780437 C137.348845,28.8518904 137.60677,26.7221644 137.60677,24.3912591 C137.60677,22.0603538 137.348845,19.9445023 136.832995,18.0437045 C136.317145,16.1429067 135.584096,14.5195976 134.633846,13.1737773 C133.683596,11.827957 132.522934,10.7873743 131.151859,10.0520291 C129.780785,9.31668401 128.240023,8.94901145 126.529573,8.94901145 C124.791974,8.94901145 123.237637,9.31668401 121.866562,10.0520291 C120.495487,10.7873743 119.334825,11.827957 118.384575,13.1737773 C117.434326,14.5195976 116.708063,16.1429067 116.205789,18.0437045 C115.703514,19.9445023 115.452376,22.0603538 115.452376,24.3912591 C115.452376,26.7221644 115.710301,28.8518904 116.226151,30.780437 C116.742001,32.7089837 117.475051,34.3531044 118.4253,35.7127992 C119.37555,37.0724939 120.536212,38.1269511 121.907287,38.8761707 C123.278362,39.6253902 124.819124,40 126.529573,40 Z M126.529573,33.4651405 C125.796523,33.4651405 125.151711,33.2292751 124.595136,32.7575442 C124.038561,32.2858134 123.577011,31.6475893 123.210487,30.842872 C122.843962,30.0381547 122.572462,29.0808186 122.395987,27.9708637 C122.219512,26.8609088 122.131274,25.6677072 122.131274,24.3912591 C122.131274,23.114811 122.219512,21.9285467 122.395987,20.8324662 C122.572462,19.7363857 122.843962,18.7859868 123.210487,17.9812695 C123.577011,17.1765522 124.038561,16.5452653 124.595136,16.0874089 C125.151711,15.6295525 125.796523,15.4006243 126.529573,15.4006243 C127.262623,15.4006243 127.900648,15.6295525 128.443648,16.0874089 C128.986647,16.5452653 129.44141,17.1765522 129.807935,17.9812695 C130.17446,18.7859868 130.452747,19.7363857 130.642797,20.8324662 C130.832847,21.9285467 130.927872,23.114811 130.927872,24.3912591 C130.927872,25.6677072 130.832847,26.8609088 130.642797,27.9708637 C130.452747,29.0808186 130.17446,30.0381547 129.807935,30.842872 C129.44141,31.6475893 128.986647,32.2858134 128.443648,32.7575442 C127.900648,33.2292751 127.262623,33.4651405 126.529573,33.4651405 Z M151.850823,39.2091571 C152.882523,39.2091571 153.907435,39.0634755 154.92556,38.7721124 C155.943685,38.4807492 156.859997,38.0090184 157.674497,37.3569199 C158.488996,36.7048214 159.147384,35.8446063 159.649659,34.7762747 C160.151933,33.7079431 160.403071,32.3829344 160.403071,30.8012487 C160.403071,29.7745404 160.267321,28.8588276 159.995821,28.0541103 C159.724321,27.249393 159.371371,26.5626084 158.936971,25.9937565 C158.502571,25.4249046 158.013872,24.960111 157.470872,24.5993757 C156.927872,24.2386403 156.384872,23.9889005 155.841872,23.8501561 L155.841872,23.8501561 L155.841872,23.7669095 C156.846422,23.2951786 157.694859,22.5390219 158.387184,21.4984391 C159.079509,20.4578564 159.425671,19.0634755 159.425671,17.3152966 C159.425671,15.7336108 159.147384,14.4432882 158.590809,13.4443288 C158.034234,12.4453694 157.341909,11.6753382 156.513834,11.1342352 C155.68576,10.5931322 154.769447,10.2254596 153.764898,10.0312175 C152.760348,9.83697537 151.810098,9.73985432 150.914149,9.73985432 L150.914149,9.73985432 L142.280451,9.73985432 L142.280451,39.2091571 L151.850823,39.2091571 Z M150.588349,21.6441207 L148.348474,21.6441207 L148.348474,15.2757544 L150.547624,15.2757544 C151.389273,15.2757544 152.122323,15.5116198 152.746773,15.9833507 C153.371223,16.4550815 153.683448,17.2597988 153.683448,18.3975026 C153.683448,19.5629553 153.364435,20.3954214 152.726411,20.8949011 C152.088386,21.3943809 151.375698,21.6441207 150.588349,21.6441207 L150.588349,21.6441207 Z M150.791974,33.673257 L148.348474,33.673257 L148.348474,26.5140479 L150.710524,26.5140479 C151.117774,26.5140479 151.531811,26.58342 151.952636,26.7221644 C152.373461,26.8609088 152.753561,27.0759625 153.092935,27.3673257 C153.43231,27.6586889 153.70381,28.0332986 153.907435,28.491155 C154.11106,28.9490114 154.212873,29.5109261 154.212873,30.1768991 C154.212873,31.3423517 153.880285,32.2164412 153.21511,32.7991675 C152.549936,33.3818939 151.742223,33.673257 150.791974,33.673257 L150.791974,33.673257 Z M168.497651,7.61706556 C169.529351,7.61706556 170.371,7.24939299 171.0226,6.51404787 C171.6742,5.77870274 172,4.8838016 172,3.82934443 C172,3.30211585 171.911763,2.80957336 171.735288,2.35171696 C171.558813,1.89386056 171.32125,1.49150191 171.0226,1.144641 C170.72395,0.79778009 170.357425,0.520291363 169.923026,0.312174818 C169.488626,0.104058273 169.013501,0 168.497651,0 C167.981801,0 167.506676,0.104058273 167.072276,0.312174818 C166.637877,0.520291363 166.271352,0.79778009 165.972702,1.144641 C165.674052,1.49150191 165.436489,1.89386056 165.260014,2.35171696 C165.083539,2.80957336 164.995302,3.30211585 164.995302,3.82934443 C164.995302,4.8838016 165.321102,5.77870274 165.972702,6.51404787 C166.624302,7.24939299 167.465951,7.61706556 168.497651,7.61706556 Z M171.714925,39.2091571 L171.714925,9.73985432 L165.158202,9.73985432 L165.158202,39.2091571 L171.714925,39.2091571 Z" id="KOBİ"></path>
                </g>
                <path d="M52.3618764,59.4210526 C53.5865531,59.4210526 54.5390794,58.9711988 55.2194554,58.0714912 C55.8998313,57.1717836 56.2400192,55.8669591 56.2400192,54.1570175 C56.2400192,52.4371345 55.9022612,51.1248538 55.2267451,50.2201754 C54.551229,49.3154971 53.6011326,48.8631579 52.3764559,48.8631579 L52.3764559,48.8631579 L50,48.8631579 L50,59.4210526 L52.3618764,59.4210526 Z M52.3618764,58.2429825 L51.2975741,58.2429825 L51.2975741,50.0412281 L52.3618764,50.0412281 C52.7215037,50.0412281 53.0592618,50.125731 53.3751506,50.2947368 C53.6910394,50.4637427 53.9631898,50.7172515 54.1916017,51.0552632 C54.4200136,51.3932749 54.5998273,51.8207602 54.7310426,52.3377193 C54.862258,52.8546784 54.9278657,53.4611111 54.9278657,54.1570175 C54.9278657,54.8429825 54.862258,55.4419591 54.7310426,55.9539474 C54.5998273,56.4659357 54.4200136,56.8909357 54.1916017,57.2289474 C53.9631898,57.5669591 53.6910394,57.8204678 53.3751506,57.9894737 C53.0592618,58.1584795 52.7215037,58.2429825 52.3618764,58.2429825 L52.3618764,58.2429825 Z M58.3673622,50.5631579 C58.5811946,50.5631579 58.7634381,50.4836257 58.9140928,50.3245614 C59.0647475,50.1654971 59.1400748,49.9616959 59.1400748,49.7131579 C59.1400748,49.4745614 59.0671774,49.2732456 58.9213826,49.1092105 C58.7755877,48.9451754 58.5909142,48.8631579 58.3673622,48.8631579 C58.1438101,48.8631579 57.9591366,48.9451754 57.8133418,49.1092105 C57.6675469,49.2732456 57.5946495,49.4745614 57.5946495,49.7131579 C57.5946495,49.9616959 57.6675469,50.1654971 57.8133418,50.3245614 C57.9591366,50.4836257 58.1438101,50.5631579 58.3673622,50.5631579 Z M58.9797005,59.4210526 L58.9797005,51.9350877 L57.7404443,51.9350877 L57.7404443,59.4210526 L58.9797005,59.4210526 Z M61.515269,50.5631579 C61.738821,50.5631579 61.9234945,50.4836257 62.0692894,50.3245614 C62.2150842,50.1654971 62.2879816,49.9616959 62.2879816,49.7131579 C62.2879816,49.4745614 62.2150842,49.2732456 62.0692894,49.1092105 C61.9234945,48.9451754 61.738821,48.8631579 61.515269,48.8631579 C61.2917169,48.8631579 61.1094733,48.9451754 60.9685383,49.1092105 C60.8276033,49.2732456 60.7571358,49.4745614 60.7571358,49.7131579 C60.7571358,49.9616959 60.8276033,50.1654971 60.9685383,50.3245614 C61.1094733,50.4836257 61.2917169,50.5631579 61.515269,50.5631579 Z M60.0573205,63 C60.4363871,63 60.7571358,62.9353801 61.0195665,62.8061404 C61.2819972,62.6769006 61.4982596,62.4954678 61.6683535,62.2618421 C61.8384475,62.0282164 61.9599432,61.7473684 62.0328406,61.4192982 C62.1057381,61.0912281 62.1421868,60.7333333 62.1421868,60.345614 L62.1421868,60.345614 L62.1421868,51.9350877 L60.9029306,51.9350877 L60.9029306,60.2561404 C60.9029306,60.4649123 60.8883511,60.6637427 60.8591922,60.8526316 C60.8300332,61.0415205 60.7814349,61.2080409 60.7133973,61.352193 C60.6453597,61.496345 60.5505931,61.6106725 60.4290974,61.6951754 C60.3076017,61.7796784 60.1545171,61.8219298 59.9698436,61.8219298 C59.9115257,61.8219298 59.8483479,61.8169591 59.7803103,61.8070175 C59.7122727,61.797076 59.6442351,61.7821637 59.5761976,61.7622807 L59.5761976,61.7622807 L59.4741412,62.9254386 C59.6976933,62.9751462 59.8920864,63 60.0573205,63 Z M64.6485963,50.5631579 C64.8624287,50.5631579 65.0446723,50.4836257 65.1953269,50.3245614 C65.3459816,50.1654971 65.4213089,49.9616959 65.4213089,49.7131579 C65.4213089,49.4745614 65.3484115,49.2732456 65.2026167,49.1092105 C65.0568218,48.9451754 64.8721484,48.8631579 64.6485963,48.8631579 C64.4250442,48.8631579 64.2403707,48.9451754 64.0945759,49.1092105 C63.948781,49.2732456 63.8758836,49.4745614 63.8758836,49.7131579 C63.8758836,49.9616959 63.948781,50.1654971 64.0945759,50.3245614 C64.2403707,50.4836257 64.4250442,50.5631579 64.6485963,50.5631579 Z M65.2609346,59.4210526 L65.2609346,51.9350877 L64.0216785,51.9350877 L64.0216785,59.4210526 L65.2609346,59.4210526 Z M68.817067,59.6149123 C68.9920208,59.6149123 69.1669746,59.5950292 69.3419284,59.5552632 C69.5168822,59.5154971 69.6578172,59.4657895 69.7647334,59.4061404 L69.7647334,59.4061404 L69.7355745,58.3921053 C69.6675369,58.4219298 69.5849198,58.449269 69.4877232,58.4741228 C69.3905267,58.4989766 69.29819,58.5114035 69.210713,58.5114035 C68.958002,58.5114035 68.7684687,58.4144737 68.6421132,58.220614 C68.5157576,58.0267544 68.4525799,57.7111111 68.4525799,57.2736842 L68.4525799,57.2736842 L68.4525799,52.9640351 L69.750154,52.9640351 L69.750154,51.9350877 L68.4525799,51.9350877 L68.4525799,49.9368421 L67.2424827,49.9368421 L67.2424827,51.9350877 L66.3239752,51.9350877 L66.3239752,52.9640351 L67.2570622,52.9640351 L67.2570622,57.527193 C67.2570622,58.1833333 67.376128,58.6953216 67.6142595,59.0631579 C67.8523911,59.4309942 68.2533269,59.6149123 68.817067,59.6149123 Z M72.0378712,59.6149123 C72.523854,59.6149123 72.9053505,59.4881579 73.1823607,59.2346491 C73.4593709,58.9811404 73.6513341,58.6307018 73.7582503,58.1833333 L73.7582503,58.1833333 L73.7874093,58.1833333 C73.7874093,58.3225146 73.797129,58.5064327 73.8165683,58.7350877 C73.8360076,58.9637427 73.8651666,59.1923977 73.9040452,59.4210526 L73.9040452,59.4210526 L74.9246091,59.4210526 C74.8954501,59.2421053 74.871151,59.0010234 74.8517117,58.697807 C74.8322723,58.3945906 74.8225527,58.1137427 74.8225527,57.8552632 L74.8225527,57.8552632 L74.8225527,54.8280702 C74.8225527,54.3309942 74.786104,53.8861111 74.7132066,53.4934211 C74.6403091,53.100731 74.5163835,52.7701754 74.3414297,52.5017544 C74.1664759,52.2333333 73.9356341,52.0295322 73.6489042,51.8903509 C73.3621743,51.7511696 73.0098368,51.6815789 72.5918916,51.6815789 C72.212825,51.6815789 71.8288986,51.773538 71.4401123,51.9574561 C71.0513261,52.1413743 70.7354373,52.4023392 70.4924459,52.7403509 L70.4924459,52.7403509 L71.1193637,53.5307018 C71.2845978,53.3020468 71.4838508,53.1181287 71.7171225,52.9789474 C71.9503943,52.8397661 72.2031054,52.7701754 72.4752557,52.7701754 C72.8446027,52.7701754 73.1386223,52.9019006 73.3573145,53.1653509 C73.5760068,53.4288012 73.6853529,53.8538012 73.6853529,54.4403509 L73.6853529,54.4403509 L73.6853529,54.7684211 L73.2042299,54.7684211 C72.8834813,54.7684211 72.5481531,54.8032164 72.1982455,54.872807 C71.8483379,54.9423977 71.5300192,55.0741228 71.2432893,55.2679825 C70.9565595,55.4618421 70.7184279,55.7302632 70.5288946,56.0732456 C70.3393613,56.4162281 70.2445946,56.8561404 70.2445946,57.3929825 C70.2445946,57.8005848 70.3004827,58.1435673 70.4122587,58.4219298 C70.5240348,58.7002924 70.6649698,58.9289474 70.8350638,59.1078947 C71.0051577,59.2868421 71.1971209,59.4160819 71.4109534,59.495614 C71.6247858,59.5751462 71.8337584,59.6149123 72.0378712,59.6149123 Z M72.3731993,58.5859649 C72.1204883,58.5859649 71.8969362,58.4790936 71.7025431,58.2653509 C71.5081499,58.0516082 71.4109534,57.7160819 71.4109534,57.2587719 C71.4109534,56.9505848 71.4619816,56.697076 71.564038,56.4982456 C71.6660944,56.2994152 71.7997396,56.1428363 71.9649738,56.0285088 C72.1302079,55.9141813 72.3173113,55.8371345 72.5262839,55.7973684 C72.7352565,55.7576023 72.9515189,55.7377193 73.175071,55.7377193 L73.175071,55.7377193 L73.7145119,55.7377193 L73.7145119,56.1701754 C73.7145119,56.428655 73.6926427,56.6995614 73.6489042,56.9828947 C73.6051658,57.2662281 73.5298384,57.527193 73.4229222,57.7657895 C73.316006,58.004386 73.1775009,58.200731 73.0074069,58.3548246 C72.8373129,58.5089181 72.6259104,58.5859649 72.3731993,58.5859649 Z M77.8100852,59.4210526 L77.8100852,48.1473684 L76.5562495,48.1473684 L76.5562495,59.4210526 L77.8100852,59.4210526 Z M82.93954,47.6850877 C83.1533725,47.6850877 83.3331861,47.6055556 83.4789809,47.4464912 C83.6247758,47.2874269 83.6976732,47.0885965 83.6976732,46.85 C83.6976732,46.6114035 83.6272057,46.4100877 83.4862707,46.2460526 C83.3453357,46.0820175 83.1630921,46 82.93954,46 C82.7159879,46 82.5337444,46.0820175 82.3928094,46.2460526 C82.2518744,46.4100877 82.1814069,46.6114035 82.1814069,46.85 C82.1814069,47.0885965 82.2518744,47.2874269 82.3928094,47.4464912 C82.5337444,47.6055556 82.7159879,47.6850877 82.93954,47.6850877 Z M83.5956168,59.4210526 L83.5956168,48.8631579 L82.2834632,48.8631579 L82.2834632,59.4210526 L83.5956168,59.4210526 Z M86.84558,62.8508772 C87.0302535,62.8508772 87.2197868,62.8309942 87.4141799,62.7912281 C87.608573,62.751462 87.7859567,62.679386 87.9463311,62.575 C88.1067054,62.470614 88.2403507,62.3339181 88.3472669,62.1649123 C88.4541831,61.9959064 88.5076412,61.7821637 88.5076412,61.5236842 C88.5076412,61.3347953 88.4736224,61.1707602 88.4055848,61.0315789 C88.3375472,60.8923977 88.2476404,60.7805556 88.1358644,60.6960526 C88.0240883,60.6115497 87.9001627,60.5494152 87.7640875,60.5096491 C87.6280123,60.469883 87.496797,60.45 87.3704414,60.45 C87.2732449,60.45 87.1906278,60.4524854 87.1225902,60.4574561 C87.0545526,60.4624269 86.9913749,60.4748538 86.9330569,60.4947368 L86.9330569,60.4947368 L87.4433389,59.6149123 C87.9390413,59.5055556 88.3399771,59.2545322 88.6461463,58.8618421 C88.9523155,58.469152 89.1054001,57.9447368 89.1054001,57.2885965 C89.1054001,56.9505848 89.0568018,56.6597953 88.9596052,56.4162281 C88.8624087,56.1726608 88.7336232,55.9614035 88.5732489,55.7824561 C88.4128746,55.6035088 88.2330609,55.4568713 88.033808,55.3425439 C87.834555,55.2282164 87.6328722,55.1312865 87.4287594,55.0517544 C87.0399731,54.9026316 86.7508134,54.748538 86.5612801,54.5894737 C86.3717468,54.4304094 86.2769801,54.1769006 86.2769801,53.8289474 C86.2769801,53.4809942 86.3693169,53.205117 86.5539903,53.0013158 C86.7386638,52.7975146 86.9719355,52.695614 87.2538056,52.695614 C87.5259559,52.695614 87.7616576,52.7577485 87.9609106,52.8820175 C88.1601635,53.0062865 88.3229677,53.1628655 88.4493233,53.3517544 L88.4493233,53.3517544 L89.163718,52.5166667 C88.9596052,52.2681287 88.6996044,52.0668129 88.3837156,51.9127193 C88.0678268,51.7586257 87.6911901,51.6815789 87.2538056,51.6815789 C86.9524962,51.6815789 86.6706262,51.7337719 86.4081955,51.8381579 C86.1457648,51.9425439 85.9173529,52.0916667 85.7229597,52.2855263 C85.5285666,52.479386 85.375482,52.7105263 85.263706,52.9789474 C85.1519299,53.2473684 85.0960419,53.545614 85.0960419,53.8736842 C85.0960419,54.2116959 85.1397804,54.4975146 85.2272573,54.7311404 C85.3147342,54.9647661 85.43137,55.1635965 85.5771649,55.3276316 C85.7229597,55.4916667 85.885764,55.6233918 86.0655776,55.722807 C86.2453912,55.8222222 86.4276348,55.9067251 86.6123083,55.9763158 C86.7969817,56.0459064 86.9695056,56.1179825 87.12988,56.1925439 C87.2902543,56.2671053 87.4287594,56.3565789 87.5453953,56.4609649 C87.6620311,56.5653509 87.7543679,56.6921053 87.8224055,56.8412281 C87.890443,56.9903509 87.9244618,57.1692982 87.9244618,57.3780702 C87.9244618,57.7459064 87.834555,58.044152 87.6547414,58.272807 C87.4749277,58.501462 87.2295064,58.6157895 86.9184774,58.6157895 C86.5880091,58.6157895 86.3109989,58.5387427 86.0874468,58.3846491 C85.8638947,58.2305556 85.6695016,58.0491228 85.5042675,57.8403509 L85.5042675,57.8403509 L84.7752933,58.6605263 C84.9988453,58.9488304 85.2758555,59.1849415 85.6063239,59.3688596 C85.9367922,59.5527778 86.3061391,59.6546784 86.7143647,59.6745614 L86.7143647,59.6745614 L86.0145494,60.8675439 L86.2915596,61.1210526 C86.4762331,61.0415205 86.675486,61.0017544 86.8893185,61.0017544 C87.0837116,61.0017544 87.2465158,61.0464912 87.3777312,61.1359649 C87.5089465,61.2254386 87.5745542,61.3646199 87.5745542,61.5535088 C87.5745542,61.672807 87.5453953,61.7697368 87.4870773,61.8442982 C87.4287594,61.9188596 87.3582919,61.9809942 87.2756748,62.0307018 C87.1930577,62.0804094 87.1031509,62.1152047 87.0059543,62.1350877 C86.9087578,62.1549708 86.8261407,62.1649123 86.7581031,62.1649123 C86.592869,62.1649123 86.422775,62.15 86.2478212,62.1201754 C86.0728673,62.0903509 85.912493,62.0356725 85.7666982,61.9561404 L85.7666982,61.9561404 L85.5188469,62.5675439 C85.7132401,62.6669591 85.9343622,62.7390351 86.1822135,62.7837719 C86.4300647,62.8285088 86.6511869,62.8508772 86.84558,62.8508772 Z M91.6992865,59.4210526 L91.6992865,48.1473684 L90.4454508,48.1473684 L90.4454508,59.4210526 L91.6992865,59.4210526 Z M95.8531777,59.6745614 C96.4169177,59.6745614 96.8810313,59.5204678 97.2455184,59.2122807 C97.6100055,58.9040936 97.8894456,58.5114035 98.0838388,58.0342105 L98.0838388,58.0342105 L97.1507518,57.4824561 C97.0341159,57.7707602 96.8786014,58.0192982 96.6842083,58.2280702 C96.4898152,58.4368421 96.2273844,58.5412281 95.8969161,58.5412281 C95.6539247,58.5412281 95.4400923,58.4766082 95.2554188,58.3473684 C95.0707454,58.2181287 94.9176608,58.0391813 94.7961651,57.8105263 C94.6746694,57.5818713 94.5823326,57.3134503 94.5191549,57.0052632 C94.4559771,56.697076 94.4243882,56.3640351 94.4243882,56.0061404 L94.4243882,56.0061404 L98.302531,56.0061404 L98.302531,55.3947368 C98.302531,54.8777778 98.2587926,54.3931287 98.1713157,53.9407895 C98.0838388,53.4884503 97.9404738,53.0957602 97.7412209,52.7627193 C97.5419679,52.4296784 97.286827,52.1662281 96.975798,51.9723684 C96.664769,51.7785088 96.2857024,51.6815789 95.8385982,51.6815789 C95.4400923,51.6815789 95.0756052,51.7785088 94.7451369,51.9723684 C94.4146686,52.1662281 94.1327985,52.4396199 93.8995268,52.7925439 C93.6662551,53.1454678 93.4864414,53.5679825 93.3600859,54.0600877 C93.2337304,54.552193 93.1705526,55.0964912 93.1705526,55.6929825 C93.1705526,56.945614 93.4086842,57.9223684 93.8849473,58.6232456 C94.3612105,59.3241228 95.0172873,59.6745614 95.8531777,59.6745614 Z M97.0486954,54.977193 L94.4535472,54.977193 C94.4535472,54.7783626 94.4778463,54.552193 94.5264446,54.2986842 C94.5750429,54.0451754 94.6528002,53.8065789 94.7597164,53.5828947 C94.8666326,53.3592105 95.0051377,53.1703216 95.1752317,53.0162281 C95.3453257,52.8621345 95.5567282,52.7850877 95.8094392,52.7850877 C96.2371041,52.7850877 96.550563,52.9864035 96.749816,53.3890351 C96.9490689,53.7916667 97.0486954,54.3210526 97.0486954,54.977193 L97.0486954,54.977193 Z M101.39212,59.6149123 C101.567074,59.6149123 101.742028,59.5950292 101.916981,59.5552632 C102.091935,59.5154971 102.23287,59.4657895 102.339786,59.4061404 L102.339786,59.4061404 L102.310627,58.3921053 C102.24259,58.4219298 102.159973,58.449269 102.062776,58.4741228 C101.96558,58.4989766 101.873243,58.5114035 101.785766,58.5114035 C101.533055,58.5114035 101.343522,58.4144737 101.217166,58.220614 C101.090811,58.0267544 101.027633,57.7111111 101.027633,57.2736842 L101.027633,57.2736842 L101.027633,52.9640351 L102.325207,52.9640351 L102.325207,51.9350877 L101.027633,51.9350877 L101.027633,49.9368421 L99.8175356,49.9368421 L99.8175356,51.9350877 L98.8990281,51.9350877 L98.8990281,52.9640351 L99.8321151,52.9640351 L99.8321151,57.527193 C99.8321151,58.1833333 99.9511809,58.6953216 100.189312,59.0631579 C100.427444,59.4309942 100.82838,59.6149123 101.39212,59.6149123 Z M104.583765,59.4210526 L104.583765,55.1263158 C104.583765,54.7883041 104.615354,54.4776316 104.678532,54.1942982 C104.74171,53.9109649 104.834046,53.6673977 104.955542,53.4635965 C105.077038,53.2597953 105.222833,53.100731 105.392927,52.9864035 C105.563021,52.872076 105.750124,52.8149123 105.954237,52.8149123 C106.187508,52.8149123 106.372182,52.8695906 106.508257,52.9789474 C106.644332,53.0883041 106.748819,53.2324561 106.821716,53.4114035 C106.894613,53.5903509 106.940782,53.7891813 106.960221,54.0078947 C106.97966,54.2266082 106.98938,54.4403509 106.98938,54.6491228 L106.98938,54.6491228 L106.98938,59.4210526 L108.214057,59.4210526 L108.214057,55.1263158 C108.214057,54.7883041 108.248076,54.4776316 108.316113,54.1942982 C108.384151,53.9109649 108.478917,53.6673977 108.600413,53.4635965 C108.721909,53.2597953 108.867704,53.100731 109.037798,52.9864035 C109.207892,52.872076 109.394995,52.8149123 109.599108,52.8149123 C109.832379,52.8149123 110.017053,52.8695906 110.153128,52.9789474 C110.289203,53.0883041 110.39369,53.2324561 110.466587,53.4114035 C110.539484,53.5903509 110.585653,53.7891813 110.605092,54.0078947 C110.624531,54.2266082 110.634251,54.4403509 110.634251,54.6491228 L110.634251,54.6491228 L110.634251,59.4210526 L111.888087,59.4210526 L111.888087,54.6491228 C111.888087,54.2812865 111.863788,53.9184211 111.815189,53.5605263 C111.766591,53.2026316 111.676684,52.8845029 111.545469,52.6061404 C111.414254,52.3277778 111.22472,52.1040936 110.976869,51.9350877 C110.729018,51.7660819 110.410699,51.6815789 110.021913,51.6815789 C109.759482,51.6815789 109.52378,51.7288012 109.314808,51.8232456 C109.105835,51.9176901 108.921162,52.0394737 108.760787,52.1885965 C108.600413,52.3377193 108.466768,52.5042398 108.359852,52.6881579 C108.252935,52.872076 108.165458,53.0535088 108.097421,53.2324561 L108.097421,53.2324561 L108.068262,53.2324561 C108.019664,53.0336257 107.956486,52.8422515 107.878729,52.6583333 C107.800971,52.4744152 107.696485,52.3103801 107.56527,52.1662281 C107.434054,52.022076 107.27368,51.9052632 107.084147,51.8157895 C106.894613,51.7263158 106.668631,51.6815789 106.406201,51.6815789 C105.920218,51.6815789 105.524142,51.8307018 105.217973,52.1289474 C104.911804,52.427193 104.705261,52.7950292 104.598345,53.2324561 L104.598345,53.2324561 L104.569186,53.2324561 C104.569186,53.1131579 104.561896,52.9292398 104.547316,52.6807018 C104.532737,52.4321637 104.510868,52.1836257 104.481709,51.9350877 L104.481709,51.9350877 L103.300771,51.9350877 C103.32021,52.2134503 103.334789,52.5241228 103.344509,52.8671053 C103.354229,53.2100877 103.359088,53.5307018 103.359088,53.8289474 L103.359088,53.8289474 L103.359088,59.4210526 L104.583765,59.4210526 Z M115.98366,59.6745614 C116.5474,59.6745614 117.011514,59.5204678 117.376001,59.2122807 C117.740488,58.9040936 118.019928,58.5114035 118.214321,58.0342105 L118.214321,58.0342105 L117.281234,57.4824561 C117.164598,57.7707602 117.009084,58.0192982 116.814691,58.2280702 C116.620298,58.4368421 116.357867,58.5412281 116.027398,58.5412281 C115.784407,58.5412281 115.570575,58.4766082 115.385901,58.3473684 C115.201228,58.2181287 115.048143,58.0391813 114.926647,57.8105263 C114.805152,57.5818713 114.712815,57.3134503 114.649637,57.0052632 C114.586459,56.697076 114.554871,56.3640351 114.554871,56.0061404 L114.554871,56.0061404 L118.433013,56.0061404 L118.433013,55.3947368 C118.433013,54.8777778 118.389275,54.3931287 118.301798,53.9407895 C118.214321,53.4884503 118.070956,53.0957602 117.871703,52.7627193 C117.67245,52.4296784 117.417309,52.1662281 117.10628,51.9723684 C116.795251,51.7785088 116.416185,51.6815789 115.969081,51.6815789 C115.570575,51.6815789 115.206088,51.7785088 114.875619,51.9723684 C114.545151,52.1662281 114.263281,52.4396199 114.030009,52.7925439 C113.796737,53.1454678 113.616924,53.5679825 113.490568,54.0600877 C113.364213,54.552193 113.301035,55.0964912 113.301035,55.6929825 C113.301035,56.945614 113.539167,57.9223684 114.01543,58.6232456 C114.491693,59.3241228 115.14777,59.6745614 115.98366,59.6745614 Z M117.179178,54.977193 L114.58403,54.977193 C114.58403,54.7783626 114.608329,54.552193 114.656927,54.2986842 C114.705525,54.0451754 114.783282,53.8065789 114.890199,53.5828947 C114.997115,53.3592105 115.13562,53.1703216 115.305714,53.0162281 C115.475808,52.8621345 115.687211,52.7850877 115.939922,52.7850877 C116.367586,52.7850877 116.681045,52.9864035 116.880298,53.3890351 C117.079551,53.7916667 117.179178,54.3210526 117.179178,54.977193 L117.179178,54.977193 Z M125.384904,62.8508772 C125.569577,62.8508772 125.759111,62.8309942 125.953504,62.7912281 C126.147897,62.751462 126.325281,62.679386 126.485655,62.575 C126.646029,62.470614 126.779674,62.3339181 126.886591,62.1649123 C126.993507,61.9959064 127.046965,61.7821637 127.046965,61.5236842 C127.046965,61.3347953 127.012946,61.1707602 126.944909,61.0315789 C126.876871,60.8923977 126.786964,60.7805556 126.675188,60.6960526 C126.563412,60.6115497 126.439486,60.5494152 126.303411,60.5096491 C126.167336,60.469883 126.036121,60.45 125.909765,60.45 C125.812569,60.45 125.729952,60.4524854 125.661914,60.4574561 C125.593876,60.4624269 125.530699,60.4748538 125.472381,60.4947368 L125.472381,60.4947368 L125.953504,59.6596491 C126.458926,59.6099415 126.89145,59.4633041 127.251078,59.2197368 C127.610705,58.9761696 127.912014,58.6654971 128.155006,58.2877193 L128.155006,58.2877193 L127.367714,57.4078947 C127.202479,57.6961988 126.981357,57.9397661 126.704347,58.1385965 C126.427337,58.3374269 126.109018,58.4368421 125.749391,58.4368421 C125.350885,58.4368421 125.003407,58.3225146 124.706958,58.0938596 C124.410508,57.8652047 124.165087,57.5545322 123.970694,57.1618421 C123.776301,56.769152 123.630506,56.3143275 123.533309,55.7973684 C123.436113,55.2804094 123.387514,54.728655 123.387514,54.1421053 C123.387514,53.5555556 123.436113,53.0013158 123.533309,52.479386 C123.630506,51.9574561 123.773871,51.5026316 123.963404,51.1149123 C124.152937,50.727193 124.393499,50.4214912 124.685089,50.197807 C124.976678,49.9741228 125.321726,49.8622807 125.720232,49.8622807 C126.040981,49.8622807 126.34229,49.9393275 126.62416,50.0934211 C126.90603,50.2475146 127.153881,50.4836257 127.367714,50.8017544 L127.367714,50.8017544 L128.184165,49.8921053 C127.902295,49.4646199 127.542667,49.1464912 127.105283,48.9377193 C126.667898,48.7289474 126.186775,48.6245614 125.661914,48.6245614 C125.098174,48.6245614 124.590322,48.7612573 124.138358,49.0346491 C123.686394,49.3080409 123.302467,49.6907895 122.986579,50.1828947 C122.67069,50.675 122.427698,51.2590643 122.257604,51.9350877 C122.08751,52.6111111 122.002463,53.3467836 122.002463,54.1421053 C122.002463,54.8877193 122.075361,55.5836257 122.221156,56.2298246 C122.366951,56.8760234 122.578353,57.4402047 122.855363,57.9223684 C123.132373,58.4045322 123.474991,58.7972222 123.883217,59.1004386 C124.291442,59.403655 124.753126,59.5850877 125.268268,59.6447368 L125.268268,59.6447368 L124.553873,60.8675439 L124.830883,61.1210526 C125.015557,61.0415205 125.21481,61.0017544 125.428642,61.0017544 C125.623035,61.0017544 125.78584,61.0464912 125.917055,61.1359649 C126.04827,61.2254386 126.113878,61.3646199 126.113878,61.5535088 C126.113878,61.672807 126.084719,61.7697368 126.026401,61.8442982 C125.968083,61.9188596 125.897616,61.9809942 125.814999,62.0307018 C125.732381,62.0804094 125.642475,62.1152047 125.545278,62.1350877 C125.448082,62.1549708 125.365464,62.1649123 125.297427,62.1649123 C125.132193,62.1649123 124.962099,62.15 124.787145,62.1201754 C124.612191,62.0903509 124.451817,62.0356725 124.306022,61.9561404 L124.306022,61.9561404 L124.058171,62.5675439 C124.252564,62.6669591 124.473686,62.7390351 124.721537,62.7837719 C124.969388,62.8285088 125.190511,62.8508772 125.384904,62.8508772 Z M132.410953,50.5035088 C132.605347,50.5035088 132.770581,50.4314327 132.906656,50.2872807 C133.042731,50.1431287 133.110769,49.9567251 133.110769,49.7280702 C133.110769,49.5093567 133.045161,49.3229532 132.913946,49.1688596 C132.78273,49.0147661 132.615066,48.9377193 132.410953,48.9377193 C132.21656,48.9377193 132.048896,49.0147661 131.907961,49.1688596 C131.767026,49.3229532 131.696559,49.5093567 131.696559,49.7280702 C131.696559,49.9567251 131.767026,50.1431287 131.907961,50.2872807 C132.048896,50.4314327 132.21656,50.5035088 132.410953,50.5035088 Z M130.165713,50.5035088 C130.360106,50.5035088 130.52777,50.4314327 130.668705,50.2872807 C130.80964,50.1431287 130.880108,49.9567251 130.880108,49.7280702 C130.880108,49.5093567 130.80964,49.3229532 130.668705,49.1688596 C130.52777,49.0147661 130.360106,48.9377193 130.165713,48.9377193 C129.95188,48.9377193 129.781786,49.0147661 129.655431,49.1688596 C129.529075,49.3229532 129.465898,49.5093567 129.465898,49.7280702 C129.465898,49.9567251 129.529075,50.1431287 129.655431,50.2872807 C129.781786,50.4314327 129.95188,50.5035088 130.165713,50.5035088 Z M131.288333,59.6745614 C131.706278,59.6745614 132.080485,59.5776316 132.410953,59.3837719 C132.741422,59.1899123 133.020862,58.9190058 133.249274,58.5710526 C133.477686,58.2230994 133.652639,57.8055556 133.774135,57.3184211 C133.895631,56.8312865 133.956379,56.2894737 133.956379,55.6929825 C133.956379,55.0964912 133.895631,54.5497076 133.774135,54.0526316 C133.652639,53.5555556 133.477686,53.1330409 133.249274,52.7850877 C133.020862,52.4371345 132.741422,52.1662281 132.410953,51.9723684 C132.080485,51.7785088 131.706278,51.6815789 131.288333,51.6815789 C130.870388,51.6815789 130.496181,51.7785088 130.165713,51.9723684 C129.835244,52.1662281 129.558234,52.4371345 129.334682,52.7850877 C129.11113,53.1330409 128.938606,53.5555556 128.817111,54.0526316 C128.695615,54.5497076 128.634867,55.0964912 128.634867,55.6929825 C128.634867,56.2894737 128.695615,56.8312865 128.817111,57.3184211 C128.938606,57.8055556 129.11356,58.2230994 129.341972,58.5710526 C129.570384,58.9190058 129.849824,59.1899123 130.180292,59.3837719 C130.510761,59.5776316 130.880108,59.6745614 131.288333,59.6745614 Z M131.288333,58.5561404 C131.055061,58.5561404 130.850949,58.4815789 130.675995,58.3324561 C130.501041,58.1833333 130.357676,57.9795322 130.2459,57.7210526 C130.134124,57.4625731 130.051507,57.1593567 129.998049,56.8114035 C129.944591,56.4634503 129.917862,56.0856725 129.917862,55.6780702 C129.917862,55.2704678 129.944591,54.8902047 129.998049,54.5372807 C130.051507,54.1843567 130.134124,53.878655 130.2459,53.6201754 C130.357676,53.3616959 130.501041,53.1578947 130.675995,53.0087719 C130.850949,52.8596491 131.055061,52.7850877 131.288333,52.7850877 C131.521605,52.7850877 131.725718,52.8596491 131.900671,53.0087719 C132.075625,53.1578947 132.22142,53.3616959 132.338056,53.6201754 C132.454692,53.878655 132.539739,54.1843567 132.593197,54.5372807 C132.646655,54.8902047 132.673384,55.2704678 132.673384,55.6780702 C132.673384,56.0856725 132.646655,56.4634503 132.593197,56.8114035 C132.539739,57.1593567 132.457122,57.4625731 132.345346,57.7210526 C132.23357,57.9795322 132.090205,58.1833333 131.915251,58.3324561 C131.740297,58.4815789 131.531324,58.5561404 131.288333,58.5561404 Z M138.999618,59.4210526 L138.999618,58.3324561 L136.039983,58.3324561 L138.985039,52.9938596 L138.985039,51.9350877 L134.961101,51.9350877 L134.961101,53.0236842 L137.687465,53.0236842 L134.742409,58.3324561 L134.742409,59.4210526 L138.999618,59.4210526 Z M143.809586,50.5035088 C144.00398,50.5035088 144.169214,50.4314327 144.305289,50.2872807 C144.441364,50.1431287 144.509402,49.9567251 144.509402,49.7280702 C144.509402,49.5093567 144.443794,49.3229532 144.312579,49.1688596 C144.181363,49.0147661 144.013699,48.9377193 143.809586,48.9377193 C143.615193,48.9377193 143.447529,49.0147661 143.306594,49.1688596 C143.165659,49.3229532 143.095192,49.5093567 143.095192,49.7280702 C143.095192,49.9567251 143.165659,50.1431287 143.306594,50.2872807 C143.447529,50.4314327 143.615193,50.5035088 143.809586,50.5035088 Z M141.564346,50.5035088 C141.758739,50.5035088 141.926403,50.4314327 142.067338,50.2872807 C142.208273,50.1431287 142.278741,49.9567251 142.278741,49.7280702 C142.278741,49.5093567 142.208273,49.3229532 142.067338,49.1688596 C141.926403,49.0147661 141.758739,48.9377193 141.564346,48.9377193 C141.350513,48.9377193 141.180419,49.0147661 141.054064,49.1688596 C140.927708,49.3229532 140.864531,49.5093567 140.864531,49.7280702 C140.864531,49.9567251 140.927708,50.1431287 141.054064,50.2872807 C141.180419,50.4314327 141.350513,50.5035088 141.564346,50.5035088 Z M142.045469,59.6745614 C142.502293,59.6745614 142.888649,59.5254386 143.204538,59.227193 C143.520427,58.9289474 143.746409,58.5611111 143.882484,58.1236842 L143.882484,58.1236842 L143.911643,58.1236842 C143.911643,58.2429825 143.918933,58.4269006 143.933512,58.6754386 C143.948092,58.9239766 143.969961,59.1725146 143.99912,59.4210526 L143.99912,59.4210526 L145.180058,59.4210526 C145.160619,59.1426901 145.146039,58.8320175 145.13632,58.4890351 C145.1266,58.1460526 145.12174,57.8254386 145.12174,57.527193 L145.12174,57.527193 L145.12174,51.9350877 L143.882484,51.9350877 L143.882484,56.2298246 C143.882484,56.5678363 143.848465,56.8785088 143.780427,57.1618421 C143.71239,57.4451754 143.615193,57.6887427 143.488838,57.8925439 C143.362482,58.096345 143.211828,58.2554094 143.036874,58.3697368 C142.86192,58.4840643 142.672387,58.5412281 142.468274,58.5412281 C142.235002,58.5412281 142.050329,58.4865497 141.914254,58.377193 C141.778178,58.2678363 141.673692,58.1236842 141.600795,57.9447368 C141.527897,57.7657895 141.481729,57.5669591 141.46229,57.3482456 C141.44285,57.1295322 141.433131,56.9157895 141.433131,56.7070175 L141.433131,56.7070175 L141.433131,51.9350877 L140.179295,51.9350877 L140.179295,56.7070175 C140.179295,57.0748538 140.203594,57.4377193 140.252192,57.795614 C140.300791,58.1535088 140.390697,58.4716374 140.521913,58.75 C140.653128,59.0283626 140.840232,59.2520468 141.083223,59.4210526 C141.326214,59.5900585 141.646963,59.6745614 142.045469,59.6745614 Z M148.284226,59.4210526 L148.284226,55.1263158 C148.284226,54.7883041 148.315815,54.4776316 148.378993,54.1942982 C148.442171,53.9109649 148.534507,53.6673977 148.656003,53.4635965 C148.777499,53.2597953 148.923294,53.100731 149.093388,52.9864035 C149.263482,52.872076 149.450585,52.8149123 149.654698,52.8149123 C149.88797,52.8149123 150.072643,52.8695906 150.208718,52.9789474 C150.344793,53.0883041 150.44928,53.2324561 150.522177,53.4114035 C150.595075,53.5903509 150.641243,53.7891813 150.660682,54.0078947 C150.680122,54.2266082 150.689841,54.4403509 150.689841,54.6491228 L150.689841,54.6491228 L150.689841,59.4210526 L151.914518,59.4210526 L151.914518,55.1263158 C151.914518,54.7883041 151.948537,54.4776316 152.016574,54.1942982 C152.084612,53.9109649 152.179379,53.6673977 152.300874,53.4635965 C152.42237,53.2597953 152.568165,53.100731 152.738259,52.9864035 C152.908353,52.872076 153.095456,52.8149123 153.299569,52.8149123 C153.532841,52.8149123 153.717514,52.8695906 153.853589,52.9789474 C153.989664,53.0883041 154.094151,53.2324561 154.167048,53.4114035 C154.239946,53.5903509 154.286114,53.7891813 154.305553,54.0078947 C154.324993,54.2266082 154.334712,54.4403509 154.334712,54.6491228 L154.334712,54.6491228 L154.334712,59.4210526 L155.588548,59.4210526 L155.588548,54.6491228 C155.588548,54.2812865 155.564249,53.9184211 155.515651,53.5605263 C155.467052,53.2026316 155.377145,52.8845029 155.24593,52.6061404 C155.114715,52.3277778 154.925181,52.1040936 154.67733,51.9350877 C154.429479,51.7660819 154.11116,51.6815789 153.722374,51.6815789 C153.459943,51.6815789 153.224242,51.7288012 153.015269,51.8232456 C152.806296,51.9176901 152.621623,52.0394737 152.461249,52.1885965 C152.300874,52.3377193 152.167229,52.5042398 152.060313,52.6881579 C151.953397,52.872076 151.86592,53.0535088 151.797882,53.2324561 L151.797882,53.2324561 L151.768723,53.2324561 C151.720125,53.0336257 151.656947,52.8422515 151.57919,52.6583333 C151.501433,52.4744152 151.396946,52.3103801 151.265731,52.1662281 C151.134515,52.022076 150.974141,51.9052632 150.784608,51.8157895 C150.595075,51.7263158 150.369093,51.6815789 150.106662,51.6815789 C149.620679,51.6815789 149.224603,51.8307018 148.918434,52.1289474 C148.612265,52.427193 148.405722,52.7950292 148.298806,53.2324561 L148.298806,53.2324561 L148.269647,53.2324561 C148.269647,53.1131579 148.262357,52.9292398 148.247778,52.6807018 C148.233198,52.4321637 148.211329,52.1836257 148.18217,51.9350877 L148.18217,51.9350877 L147.001232,51.9350877 C147.020671,52.2134503 147.035251,52.5241228 147.04497,52.8671053 C147.05469,53.2100877 147.05955,53.5307018 147.05955,53.8289474 L147.05955,53.8289474 L147.05955,59.4210526 L148.284226,59.4210526 Z M158.663557,59.4210526 L158.663557,48.1473684 L157.409722,48.1473684 L157.409722,59.4210526 L158.663557,59.4210526 Z M162.817449,59.6745614 C163.381189,59.6745614 163.845302,59.5204678 164.209789,59.2122807 C164.574276,58.9040936 164.853716,58.5114035 165.04811,58.0342105 L165.04811,58.0342105 L164.115023,57.4824561 C163.998387,57.7707602 163.842872,58.0192982 163.648479,58.2280702 C163.454086,58.4368421 163.191655,58.5412281 162.861187,58.5412281 C162.618196,58.5412281 162.404363,58.4766082 162.21969,58.3473684 C162.035016,58.2181287 161.881932,58.0391813 161.760436,57.8105263 C161.63894,57.5818713 161.546603,57.3134503 161.483426,57.0052632 C161.420248,56.697076 161.388659,56.3640351 161.388659,56.0061404 L161.388659,56.0061404 L165.266802,56.0061404 L165.266802,55.3947368 C165.266802,54.8777778 165.223063,54.3931287 165.135587,53.9407895 C165.04811,53.4884503 164.904745,53.0957602 164.705492,52.7627193 C164.506239,52.4296784 164.251098,52.1662281 163.940069,51.9723684 C163.62904,51.7785088 163.249973,51.6815789 162.802869,51.6815789 C162.404363,51.6815789 162.039876,51.7785088 161.709408,51.9723684 C161.378939,52.1662281 161.097069,52.4396199 160.863798,52.7925439 C160.630526,53.1454678 160.450712,53.5679825 160.324357,54.0600877 C160.198001,54.552193 160.134823,55.0964912 160.134823,55.6929825 C160.134823,56.945614 160.372955,57.9223684 160.849218,58.6232456 C161.325481,59.3241228 161.981558,59.6745614 162.817449,59.6745614 Z M164.012966,54.977193 L161.417818,54.977193 C161.417818,54.7783626 161.442117,54.552193 161.490715,54.2986842 C161.539314,54.0451754 161.617071,53.8065789 161.723987,53.5828947 C161.830903,53.3592105 161.969409,53.1703216 162.139503,53.0162281 C162.309596,52.8621345 162.520999,52.7850877 162.77371,52.7850877 C163.201375,52.7850877 163.514834,52.9864035 163.714087,53.3890351 C163.91334,53.7916667 164.012966,54.3210526 164.012966,54.977193 L164.012966,54.977193 Z M167.977324,59.4210526 L167.977324,55.6333333 C167.977324,55.3052632 168.008913,54.9846491 168.072091,54.6714912 C168.135269,54.3583333 168.227605,54.0774854 168.349101,53.8289474 C168.470597,53.5804094 168.621251,53.3790936 168.801065,53.225 C168.980879,53.0709064 169.187421,52.9938596 169.420693,52.9938596 C169.469291,52.9938596 169.51303,52.996345 169.551908,53.0013158 C169.590787,53.0062865 169.629666,53.0137427 169.668544,53.0236842 L169.668544,53.0236842 L169.726862,51.6964912 C169.687984,51.6865497 169.629666,51.6815789 169.551908,51.6815789 C169.182562,51.6815789 168.856953,51.825731 168.575083,52.1140351 C168.293213,52.4023392 168.0891,52.8596491 167.962745,53.4859649 L167.962745,53.4859649 L167.933586,53.4859649 C167.933586,53.2374269 167.926296,52.9789474 167.911716,52.7105263 C167.897137,52.4421053 167.875268,52.1836257 167.846109,51.9350877 L167.846109,51.9350877 L166.665171,51.9350877 C166.68461,52.2134503 166.699189,52.5241228 166.708909,52.8671053 C166.718629,53.2100877 166.723489,53.5307018 166.723489,53.8289474 L166.723489,53.8289474 L166.723489,59.4210526 L167.977324,59.4210526 Z M171.227287,50.5631579 C171.44112,50.5631579 171.623363,50.4836257 171.774018,50.3245614 C171.924673,50.1654971 172,49.9616959 172,49.7131579 C172,49.4745614 171.927103,49.2732456 171.781308,49.1092105 C171.635513,48.9451754 171.450839,48.8631579 171.227287,48.8631579 C171.003735,48.8631579 170.819062,48.9451754 170.673267,49.1092105 C170.527472,49.2732456 170.454575,49.4745614 170.454575,49.7131579 C170.454575,49.9616959 170.527472,50.1654971 170.673267,50.3245614 C170.819062,50.4836257 171.003735,50.5631579 171.227287,50.5631579 Z M171.839626,59.4210526 L171.839626,51.9350877 L170.60037,51.9350877 L170.60037,59.4210526 L171.839626,59.4210526 Z" id="DijitalİşletmeÇözümleri"></path>
            </g>
        </g>
    </g>
</svg>