<?xml version="1.0" encoding="UTF-8"?>
<svg width="191px" height="120px" viewBox="0 0 191 120" version="1.1" xmlns="http://www.w3.org/2000/svg" xmlns:xlink="http://www.w3.org/1999/xlink">
    <title>Artboard</title>
    <defs>
        <path d="M3.58719174,0.0561186104 C1.47765698,-0.346455248 -0.346208285,1.47745734 0.0560348699,3.58704684 C0.285979603,4.79348736 1.20639905,5.71393069 2.41280826,5.94388139 C4.52234302,6.34645525 6.34620829,4.52254266 5.94396513,2.41295316 C5.7140204,1.20651264 4.79360095,0.286069311 3.58719174,0.0561186104" id="path-1"></path>
        <path d="M3.58747893,0.0561188763 C1.47791526,-0.346454964 -0.345975003,1.47745754 0.0559534031,3.58672669 C0.285901288,4.79348741 1.20633335,5.7139307 2.4127591,5.94388139 C4.52232277,6.34645523 6.34621303,4.52254273 5.94396436,2.41295332 C5.71401648,1.20683312 4.79390467,0.286389832 3.58747893,0.0561188763" id="path-3"></path>
        <path d="M3.58719174,0.0561166505 C1.47765698,-0.346441223 -0.346208285,1.47739894 0.0560348699,3.58658443 C0.285979603,4.79297704 1.20639905,5.71370408 2.41280826,5.9439659 C4.52234302,6.34620352 6.34620829,4.52236335 5.94396513,2.41285762 C5.7140204,1.20646501 4.79360095,0.28605822 3.58719174,0.0561166505" id="path-5"></path>
        <path d="M95.5006571,0 C117.94421,0 138.088258,13.2916135 146.898442,33.4852127 C147.348166,34.5160731 148.349042,35.2014928 149.480228,35.2397234 C150.629637,35.2782953 152.02935,35.3407614 152.840091,35.4264388 C174.280705,37.6929663 191.032226,55.7729604 190.999953,77.6572389 C190.964837,101.119894 171.504314,120 147.871468,120 L147.871468,120 L43.1298458,120 C19.6073686,120 0.191886852,101.292615 0.0013803381,77.9405549 C-0.17325582,56.1825738 16.2437238,38.1230604 37.4192482,35.5114336 C37.4364395,35.5090442 37.4543184,35.5069961 37.4718535,35.5049481 C41.0741132,35.0762194 44.2252738,32.9175568 45.9131132,29.7290578 C55.4766192,11.6596454 74.480198,0 95.5006571,0 Z M107.383266,7.82873609 C101.335376,6.34593558 95.5006571,10.9397499 95.5006571,17.1245708 L95.5006571,17.1245708 L95.5006571,24.8864034 C95.5006571,28.3722134 98.3468446,31.1982045 101.85799,31.1982045 L101.85799,31.1982045 L105.303466,31.1982045 C109.063541,31.1982045 112.659612,29.7662644 115.453194,27.2676226 C117.42469,25.5042369 120.129565,24.5337945 123.053113,24.8686535 C127.38944,25.3649684 130.806378,28.6213949 131.459646,32.9062924 C132.36597,38.8525136 127.731546,43.9883829 121.910925,43.9883829 C119.365241,43.9883829 117.046825,43.0053108 115.319446,41.4020156 C112.618697,38.8941576 108.99959,37.5932937 105.301747,37.5932937 L105.301747,37.5932937 L85.6999115,37.5932937 C82.0017245,37.5932937 78.3826174,36.2920885 75.6815243,33.7842305 C73.954145,32.1809353 71.6360735,31.1982045 69.0903896,31.1982045 C63.3980148,31.1982045 58.8395764,36.1101519 59.4897504,41.8887729 C59.9999874,46.4248999 63.7586877,50.0110653 68.3432568,50.3551405 C71.0828583,50.5609712 73.6068813,49.6243219 75.483137,47.9763107 C78.3413583,45.4657219 81.9690611,43.9883829 85.7851802,43.9883829 L85.7851802,43.9883829 L89.1433238,43.9883829 C92.6541259,43.9883829 95.5006571,46.8140327 95.5006571,50.2998427 L95.5006571,50.2998427 L95.5006571,50.4667602 C95.5006571,53.9525702 98.3471884,56.7782199 101.858334,56.7782199 L101.858334,56.7782199 L131.813443,56.7782199 C135.573518,56.7782199 139.169589,55.3466211 141.963515,52.8479794 C143.845616,51.1644683 146.395769,50.2035835 149.167003,50.4114623 C153.751916,50.7548549 157.510616,54.3410202 158.021541,58.8774886 C158.671715,64.656451 154.113276,69.5687397 148.420902,69.5687397 C145.874874,69.5687397 143.556802,68.5856675 141.829767,66.9823724 C139.12833,64.4745144 135.509911,63.1736505 131.811724,63.1736505 L131.811724,63.1736505 L59.2291307,63.1736505 C55.4126677,63.1733091 51.7853088,61.6959701 48.9270874,59.1857227 C47.0511755,57.5377115 44.5271526,56.6010622 41.7875511,56.8065515 C37.202982,57.1506268 33.4442817,60.7364508 32.9337008,65.2729191 C32.2835268,71.0515402 36.8419652,75.9638289 42.5343401,75.9638289 C45.080024,75.9638289 47.3984393,74.9807567 49.1254747,73.3774616 C51.8269116,70.8699449 55.4456749,69.5687397 59.1438619,69.5687397 L59.1438619,69.5687397 L89.1433238,69.5687397 C92.6541259,69.5687397 95.5006571,72.3943894 95.5006571,75.8801995 L95.5006571,75.8801995 L95.5006571,76.0471169 C95.5006571,79.5329269 98.3471884,82.3585767 101.858334,82.3585767 L101.858334,82.3585767 L117.079145,82.3585767 C120.839221,82.3585767 124.435291,80.9269779 127.228874,78.4283361 C129.111662,76.7448251 131.662159,75.7839403 134.433049,75.9918191 C139.017962,76.335553 142.776662,79.9217183 143.287243,84.4578454 C143.937417,90.2364664 139.378979,95.1490964 133.686604,95.1490964 C131.14092,95.1490964 128.822505,94.1660243 127.095125,92.5623878 C124.394376,90.0548711 120.775613,88.7540072 117.077426,88.7540072 L117.077426,88.7540072 L74.0555735,88.7540072 C70.2394544,88.7536659 66.6114078,87.2763269 63.7531865,84.7657381 C61.8772746,83.1177269 59.3532517,82.1814189 56.6136501,82.3869083 C52.029081,82.7309836 48.2703807,86.3171489 47.7601437,90.8532759 C47.1103135,96.6318969 51.6684081,101.544186 57.3607829,101.544186 C59.9064669,101.544186 62.2248822,100.561113 63.9519176,98.9578184 C66.6530107,96.4499603 70.271774,95.1490964 73.9703048,95.1490964 L73.9703048,95.1490964 L89.1433238,95.1490964 C92.6541259,95.1490964 95.5006571,97.9747462 95.5006571,101.460556 L95.5006571,101.460556 L95.5006571,104.044193 C95.5006571,109.324109 99.811885,113.603887 105.130178,113.603887 L105.130178,113.603887 L147.885909,113.603887 C167.901366,113.603887 184.441435,97.6747044 184.556883,77.8040171 C184.671799,57.8517484 168.356247,41.5832696 148.285091,41.5832696 C148.139996,41.5832696 147.875938,41.5928272 147.540365,41.6085291 C144.942075,41.7297064 142.559708,40.1772716 141.62966,37.7653313 C141.132833,36.4760732 140.633598,35.2260696 140.336533,34.6003852 C133.936909,21.1275178 121.744169,11.3490219 107.383266,7.82873609 Z M134.488405,82.4620041 C132.124605,81.8646512 129.967787,84.0065879 130.57017,86.3533314 C130.857264,87.4705519 131.759462,88.3662399 132.885147,88.6505799 C135.248603,89.2475914 137.40542,87.1063373 136.803382,84.7599353 C136.516632,83.6423734 135.614434,82.7466854 134.488405,82.4620041 Z M149.22339,56.8819887 C146.859246,56.2839531 144.701741,58.4262312 145.304467,60.7729746 C145.591218,61.8905365 146.49376,62.7862245 147.619444,63.0705644 C149.982901,63.6672346 152.139374,61.5263219 151.53768,59.1799198 C151.251273,58.062358 150.348731,57.1663286 149.22339,56.8819887 Z M122.71307,31.3016319 C120.348925,30.7035963 118.191764,32.8462158 118.794834,35.1933005 C119.081929,36.3105211 119.98447,37.2062091 121.110155,37.4902077 C123.473268,38.0865365 125.629397,35.9456238 125.028047,33.5995631 C124.741296,32.4820012 123.839098,31.5859719 122.71307,31.3016319 Z" id="path-7"></path>
        <linearGradient x1="92.0143509%" y1="19.443057%" x2="-24.86223%" y2="78.4288474%" id="linearGradient-9">
            <stop stop-color="#E74C3C" offset="0%"></stop>
            <stop stop-color="#A93226" offset="100%"></stop>
        </linearGradient>
    </defs>
    <g id="Artboard" stroke="none" stroke-width="1" fill="none" fill-rule="evenodd">
        <g id="TEKCLOUD-EPS-10" transform="translate(-0.000000, 0.000000)">
            <g id="Group-3" transform="translate(67.000000, 39.000000)">
                <mask id="mask-2" fill="white">
                    <use xlink:href="#path-1"></use>
                </mask>
                <g id="Clip-2"></g>
                <path d="M3.58719174,0.0561186104 C1.47765698,-0.346455248 -0.346208285,1.47745734 0.0560348699,3.58704684 C0.285979603,4.79348736 1.20639905,5.71393069 2.41280826,5.94388139 C4.52234302,6.34645525 6.34620829,4.52254266 5.94396513,2.41295316 C5.7140204,1.20651264 4.79360095,0.286069311 3.58719174,0.0561186104" id="Fill-1" fill="#CC4133" mask="url(#mask-2)"></path>
            </g>
            <g id="Group-6" transform="translate(41.000000, 63.000000)">
                <mask id="mask-4" fill="white">
                    <use xlink:href="#path-3"></use>
                </mask>
                <g id="Clip-5"></g>
                <path d="M3.58747893,0.0561188763 C1.47791526,-0.346454964 -0.345975003,1.47745754 0.0559534031,3.58672669 C0.285901288,4.79348741 1.20633335,5.7139307 2.4127591,5.94388139 C4.52232277,6.34645523 6.34621303,4.52254273 5.94396436,2.41295332 C5.71401648,1.20683312 4.79390467,0.286389832 3.58747893,0.0561188763" id="Fill-4" fill="#CC4133" mask="url(#mask-4)"></path>
            </g>
            <g id="Group-9" transform="translate(53.000000, 90.000000)">
                <mask id="mask-6" fill="white">
                    <use xlink:href="#path-5"></use>
                </mask>
                <g id="Clip-8"></g>
                <path d="M3.58719174,0.0561166505 C1.47765698,-0.346441223 -0.346208285,1.47739894 0.0560348699,3.58658443 C0.285979603,4.79297704 1.20639905,5.71370408 2.41280826,5.9439659 C4.52234302,6.34620352 6.34620829,4.52236335 5.94396513,2.41285762 C5.7140204,1.20646501 4.79360095,0.28605822 3.58719174,0.0561166505" id="Fill-7" fill="#CC4133" mask="url(#mask-6)"></path>
            </g>
            <g id="Group-12" transform="translate(-0.000000, 0.000000)">
                <mask id="mask-8" fill="white">
                    <use xlink:href="#path-7"></use>
                </mask>
                <g id="Clip-11"></g>
                <polygon id="Fill-10" fill="url(#linearGradient-9)" mask="url(#mask-8)" points="0.0014075296 183.108795 195.597885 183.108795 195.597885 0 0.0014075296 0"></polygon>
            </g>
        </g>
    </g>
</svg>