<svg width="390" height="107" viewBox="0 0 390 107" fill="none" xmlns="http://www.w3.org/2000/svg">
<path fill-rule="evenodd" clip-rule="evenodd" d="M247.67 52.702L248.427 56.1714L248.742 59.8938H241.803L241.489 56.6138L240.605 53.5848L239.343 50.8097L237.578 48.2864L235.37 46.0791L232.847 44.4382L230.135 43.0517L227.043 42.2303L223.825 41.9157V35.0395L227.484 35.3541L230.954 36.1114L234.296 37.3737L237.388 39.0767L240.1 41.1584L242.625 43.5546L244.707 46.3315L246.283 49.3593L247.67 52.702" fill="#ED1D29"/>
<path fill-rule="evenodd" clip-rule="evenodd" d="M216.635 36.1114L220.229 35.292L223.825 35.0395V41.9157L220.546 42.2303L217.58 43.0517L214.741 44.4382L212.345 46.0791L210.137 48.2864L208.37 50.8097L206.984 53.5848L206.164 56.6138L205.91 59.8938H198.972L199.224 56.1714L200.044 52.702L201.305 49.3593L203.009 46.3315L205.09 43.5546L207.486 41.0321L210.326 39.0767L213.417 37.3737L216.635 36.1114" fill="#39B53E"/>
<path fill-rule="evenodd" clip-rule="evenodd" d="M200.044 67.022L199.224 63.4265L198.972 59.8938H205.91L206.164 63.0478L206.984 66.2018L208.37 68.9144L210.137 71.4377L212.345 73.6454L214.741 75.3484L217.58 76.6736L220.546 77.4303L223.825 77.7457V84.6846L220.229 84.3692L216.635 83.6123L213.417 82.3508L210.326 80.7103L207.486 78.5659L205.09 76.1687L203.009 73.33L201.305 70.3021L200.044 67.022" fill="#EAC113"/>
<path fill-rule="evenodd" clip-rule="evenodd" d="M223.825 63.9939L222.563 63.7421L221.365 63.2364L220.419 62.2903L219.915 61.218L219.726 59.8938L219.915 58.5062L220.419 57.4339L221.365 56.4878L222.563 55.8561L243.128 45.7005L227.169 62.2903L226.348 63.2364L225.15 63.7421L223.825 63.9939" fill="white"/>
<path fill-rule="evenodd" clip-rule="evenodd" d="M19 84.1797V23.9999H30.7959L32.4364 26.839L34.2653 29.678L35.9058 32.5171L37.7348 35.4803L39.5011 38.3193L41.205 41.1584L42.9707 43.9974L44.737 46.9627L46.5669 49.8009L48.2066 52.6387L50.0362 55.5415L51.8028 58.3793L53.5058 61.218L55.2721 64.1826V23.9999H66.7527V84.1797H54.4519L52.7488 81.3411L50.9825 78.5659L49.2787 75.7273L47.5132 72.8879L45.8093 70.05L44.0428 67.3374L42.3398 64.4988L40.5734 61.6601L38.8704 58.8207L37.1039 56.1089L35.4017 53.2703L33.6978 50.4316L31.9323 47.593L30.2285 44.8169V84.1797H19Z" fill="white"/>
<path fill-rule="evenodd" clip-rule="evenodd" d="M105.232 58.6322L105.106 57.0544L104.917 55.5415L104.602 54.2165L104.034 52.9549L103.403 51.8826L102.709 50.8097L101.636 49.9894L100.502 49.2335L99.2399 48.7278L97.9777 48.4133H95.139L93.8782 48.7278L92.6157 49.3593L91.4174 50.1163L90.4086 51.0624L89.6511 52.0086L89.1462 53.1442L88.5788 54.2791L88.2634 55.6675L88.0741 57.0544V58.6322H105.232V58.6322ZM104.665 70.1761L106.557 70.4914L108.449 70.8068L110.342 71.1223L112.234 71.4377L114.127 71.753L116.146 72.0684L115.388 73.8341L114.569 75.538L113.748 76.9889L112.676 78.5026L111.604 79.638L110.342 80.7736L109.08 81.8459L107.629 82.6662L106.179 83.4229L104.602 83.9278L102.899 84.4952L101.006 84.8106L99.1139 84.8739L97.0947 84.9999L94.6982 84.8739L92.3637 84.6846L90.156 84.1797L88.2001 83.549L86.3076 82.7922L84.6045 81.7199L83.0275 80.5843L81.5766 79.1958L80.3149 77.6196L79.2428 76.0427L78.4226 74.4657L77.6658 72.8254L77.0349 70.9328L76.5302 69.0404L76.2147 67.0221L75.9628 64.8141L75.8993 62.6064L75.9628 60.2717L76.2147 58.0648L76.5935 55.856L77.0349 53.901L77.6658 52.0086L78.4859 50.1796L79.4322 48.6018L80.3784 47.0248L81.6401 45.7004L83.1544 44.1858L84.7306 43.0517L86.3711 41.8516L88.0741 41.0322L89.8404 40.2748L91.859 39.8961L93.8782 39.5816L95.9591 39.4554H98.041L100.06 39.7699L101.953 40.2127L103.845 40.7176L105.548 41.4729L107.125 42.2944L108.701 43.3663L110.026 44.6285L111.414 45.9529L112.487 47.3401L113.433 48.7913L114.253 50.3683L115.01 52.198L115.515 54.0905L116.02 56.0456L116.334 58.2533L116.65 60.5872L116.777 62.9843V65.6336H87.8848L87.9481 67.3374L88.2001 68.7884L88.5788 70.1761L89.1462 71.4377L89.7771 72.5733L90.5974 73.6454L91.5434 74.4657L92.4897 75.0966L93.6253 75.7273L94.6982 76.0427L95.9591 76.358L97.3475 76.484L98.3563 76.358L99.3026 76.1687L100.249 75.8533L101.132 75.4119L101.827 74.907L102.457 74.2763L103.087 73.3936L103.718 72.4473L104.286 71.4377L104.665 70.1761" fill="white"/>
<path fill-rule="evenodd" clip-rule="evenodd" d="M146.109 40.401V49.6741H138.098V68.9144L138.224 70.3021V71.4377L138.35 72.3838L138.413 73.0147L138.539 73.4561L138.665 73.8341L138.855 74.2763L139.17 74.5917L139.485 74.907L139.928 75.0966L140.306 75.3484L140.873 75.4119H142.135L142.955 75.2224L143.901 75.0331L144.973 74.7802L146.109 74.4023L146.236 75.8533L146.424 77.3043L146.55 78.818L146.74 80.395L146.929 81.8459L147.055 83.2969L145.668 83.8643L144.343 84.2432L142.766 84.5578L141.252 84.8739L139.611 84.9999H136.647L135.511 84.8739L134.313 84.6846L133.304 84.3692L132.231 84.0539L131.285 83.4857L130.465 83.1076L129.708 82.5394L129.077 81.9093L128.573 81.2785L128.131 80.5843L127.816 79.7016L127.5 78.8813L127.311 77.935L127.059 76.7996L126.996 76.0427L126.87 75.2851L126.743 74.2763V49.6741H121.318V40.401H126.743V31.8859L128.636 30.7499L130.528 29.5518L132.421 28.542L134.313 27.3439L136.205 26.2079L138.098 25.136V40.401H146.109" fill="white"/>
<path fill-rule="evenodd" clip-rule="evenodd" d="M154.184 84.1797V23.9999H195.628V34.0298H166.485V48.4133H191.528V58.3793H166.485V84.1797H154.184" fill="white"/>
<path fill-rule="evenodd" clip-rule="evenodd" d="M265.207 84.0539H253.662V40.3389H264.387V46.6461L265.333 45.2577L266.153 43.9974L267.036 42.9255L267.856 42.1041L268.677 41.3467L269.432 40.8418L270.254 40.3389L271.199 39.8961L272.145 39.5816L273.219 39.3913H275.615L276.878 39.5816L278.264 39.8961L279.526 40.3389L280.662 40.8418L281.922 41.6012L281.293 43.178L280.662 44.8169L280.157 46.5199L279.526 48.2231L279.021 49.8634L278.39 51.5664L277.192 50.9357L276.184 50.4316L275.11 50.1163L274.039 49.8634L273.029 49.8009H271.957L271.135 49.9894L270.254 50.3056L269.559 50.6202L268.927 51.1251L268.298 51.63L267.667 52.5127L267.1 53.4588L266.722 54.5952L266.279 55.9821L266.09 56.8023L265.838 57.8744L265.648 59.0109L265.521 60.4612L265.459 62.0382L265.333 63.8681V65.8229L265.207 68.0309V84.0539" fill="white"/>
<path fill-rule="evenodd" clip-rule="evenodd" d="M324.819 53.333L322.927 53.6492L321.034 53.9637L319.267 54.2791L317.375 54.5952L315.482 54.91L313.591 55.3514L313.274 54.0905L312.833 52.9549L312.328 51.8826L311.697 50.9357L310.942 50.3056L309.994 49.6741L309.175 49.1692L308.103 48.7278L306.967 48.5393L305.705 48.4133L304.316 48.5393L302.992 48.7278L301.794 49.1692L300.658 49.8009L299.712 50.4944L298.766 51.4404L298.135 52.3867L297.504 53.4588L297.063 54.7212L296.747 56.1714L296.432 57.7486L296.37 59.4522L296.242 61.344L296.37 63.5525L296.432 65.4451L296.747 67.2114L297.063 68.7884L297.504 70.1761L298.135 71.3117L298.766 72.258L299.712 73.3301L300.784 74.0868L301.92 74.7177L303.182 75.0966L304.444 75.4119L305.893 75.538L307.157 75.4119L308.355 75.2224L309.365 74.907L310.309 74.3396L311.257 73.6454L311.888 73.0147L312.455 72.1311L312.96 71.1223L313.464 69.9232L313.905 68.6624L314.222 67.2114L316.113 67.526L318.007 67.9681L319.898 68.2837L321.791 68.5983L323.683 68.9144L325.576 69.2298L324.945 71.4377L324.187 73.3936L323.368 75.2224L322.422 76.8629L321.35 78.4399L320.088 79.8276L318.826 80.9624L317.502 81.9093L315.987 82.6662L314.536 83.423L312.833 83.9279L311.192 84.3692L309.301 84.6846L307.408 84.8739H305.39L302.992 84.7479L300.784 84.4317L298.766 84.0539L296.747 83.423L294.855 82.5394L293.215 81.5306L291.512 80.269L290.061 78.8813L288.863 77.4936L287.853 75.9166L286.907 74.3396L286.15 72.6993L285.519 70.8068L285.014 68.7884L284.573 66.7067L284.385 64.4988V59.8311L284.573 57.6226L285.014 55.5415L285.519 53.5223L286.15 51.63L286.907 49.8634L287.853 48.2864L288.863 46.8365L290.061 45.3218L291.385 44.0595L292.774 43.0518L294.351 41.9778L295.927 41.2225L297.63 40.5273L299.398 39.9603L301.415 39.6437L303.371 39.3292H307.472L309.301 39.5816L311.068 39.7699L312.771 40.2127L314.222 40.7176L315.608 41.2225L316.935 41.9778L318.133 42.7993L319.457 43.8712L320.655 45.0072L321.665 46.3937L322.611 47.8451L323.494 49.5481L324.187 51.3144L324.819 53.333" fill="white"/>
<path fill-rule="evenodd" clip-rule="evenodd" d="M359.514 58.5062L359.45 56.9284L359.2 55.4782L358.883 54.0905L358.378 52.8289L357.747 51.7558L356.99 50.7462L355.982 49.8634L354.784 49.1692L353.646 48.6018L352.259 48.4133L350.935 48.2864L349.42 48.4133L348.158 48.6018L346.898 49.2335L345.762 49.9895L344.69 50.9357L343.995 51.8826L343.428 53.0174L343.049 54.2166L342.608 55.5415L342.42 56.9284V58.5062H359.514ZM359.009 70.05L360.901 70.3646L362.794 70.6808L364.687 70.9963L366.579 71.3117L368.598 71.627L370.49 71.9416L369.732 73.7714L368.977 75.4119L368.029 76.9254L367.019 78.3766L365.948 79.5122L364.687 80.7103L363.425 81.7199L361.975 82.6027L360.46 83.2969L358.883 83.8643L357.242 84.3692L355.351 84.6846L353.457 84.8739H351.44L349.042 84.8106L346.707 84.5578L344.502 84.0539L342.482 83.549L340.717 82.6662L338.95 81.6566L337.373 80.4583L335.858 79.1334L334.596 77.5564L333.588 75.9794L332.705 74.4024L332.011 72.6993L331.378 70.8068L330.811 68.9144L330.497 66.8961L330.306 64.6873V60.2092L330.497 58.0005L330.937 55.7936L331.378 53.7752L332.073 51.8826L332.831 50.1796L333.777 48.5393L334.848 46.9627L335.984 45.5742L337.435 44.0595L339.012 42.9255L340.717 41.7895L342.42 40.9059L344.311 40.2127L346.205 39.7699L348.158 39.4554L350.304 39.3292H352.386L354.405 39.6437L356.359 40.0865L358.19 40.5914L359.829 41.3467L361.406 42.1682L362.984 43.2401L364.371 44.5023L365.759 45.8908L366.769 47.2151L367.715 48.7278L368.598 50.3056L369.292 52.0714L369.923 53.9637L370.363 55.9821L370.806 58.1908L370.995 60.4612L371.121 62.9218V65.5076H342.165L342.292 67.2114L342.482 68.6624L342.923 70.05L343.428 71.3117L344.059 72.4473L344.942 73.5194L345.888 74.3396L346.834 74.9706L347.97 75.6005L349.106 75.9166L350.304 76.2314L351.628 76.358L352.7 76.2314L353.646 76.0427L354.593 75.7273L355.413 75.2851L356.17 74.7802L356.801 74.1503L357.432 73.3301L358.062 72.3838L358.568 71.3117L359.009 70.05" fill="white"/>
</svg>
